<?xml version="1.0" standalone="no"?>
<!DOCTYPE svg PUBLIC "-//W3C//DTD SVG 20010904//EN"
 "http://www.w3.org/TR/2001/REC-SVG-20010904/DTD/svg10.dtd">
<svg version="1.0" xmlns="http://www.w3.org/2000/svg"
 width="626.000000pt" height="626.000000pt" viewBox="0 0 626.000000 626.000000"
 preserveAspectRatio="xMidYMid meet">

<g transform="translate(0.000000,626.000000) scale(0.100000,-0.100000)"
fill="#000000" stroke="none">
<path d="M2905 5306 c-219 -43 -394 -186 -446 -364 -8 -28 -21 -48 -38 -57
-39 -21 -101 -82 -101 -99 0 -18 28 -34 85 -51 43 -13 52 -30 54 -100 1 -22
11 -72 22 -112 26 -86 21 -114 -28 -159 -40 -37 -39 -54 6 -100 16 -16 42 -58
58 -94 56 -120 123 -190 184 -190 14 0 34 -9 44 -20 29 -32 99 -28 134 8 40
40 100 262 101 376 1 32 20 66 38 66 5 0 15 22 22 48 16 68 45 111 85 128 59
24 109 -11 122 -89 11 -69 -74 -197 -131 -197 -26 0 -26 -1 -12 -22 9 -12 16
-35 16 -50 0 -14 8 -34 17 -44 17 -17 53 -88 53 -104 0 -5 -53 -33 -117 -64
-116 -56 -132 -58 -133 -19 0 6 -5 15 -11 19 -10 6 -8 -10 8 -52 2 -6 -7 -15
-20 -21 -19 -9 -25 -24 -35 -76 -18 -98 -17 -110 13 -103 43 11 42 -29 -4
-187 -60 -203 -71 -227 -101 -229 -48 -3 -85 2 -122 18 -35 16 -38 16 -73 -6
-32 -20 -40 -21 -81 -11 -25 7 -54 9 -65 6 -20 -7 -109 46 -144 85 -22 24 -47
25 -81 4 -13 -9 -27 -15 -29 -12 -3 3 -2 26 1 52 6 42 9 47 28 41 105 -30 116
-19 116 117 0 85 -3 101 -20 118 -24 24 -106 28 -149 6 -44 -23 -53 -57 -57
-226 -3 -85 -6 -155 -7 -156 -1 -2 -28 32 -60 75 -32 43 -68 88 -81 100 l-22
21 -122 -30 c-144 -35 -176 -50 -197 -90 -41 -80 -60 -294 -32 -363 21 -49 39
-58 131 -65 l84 -7 -39 -65 c-142 -232 -257 -529 -275 -711 l-7 -69 -34 0
c-54 0 -182 -29 -263 -61 -100 -38 -217 -116 -280 -187 -66 -74 -131 -202
-133 -265 -3 -67 11 -76 73 -47 56 26 69 23 46 -12 -28 -44 -65 -174 -71 -254
-23 -289 172 -564 460 -650 42 -13 93 -18 170 -18 97 0 120 4 195 30 47 17
111 47 142 68 65 43 166 146 198 204 l22 39 41 -15 c35 -12 125 -15 532 -16
270 -1 632 3 805 8 l315 8 55 -73 c133 -177 323 -272 545 -272 302 1 557 187
652 478 48 148 34 367 -33 497 l-13 26 65 11 c35 7 69 9 74 6 14 -9 127 -201
185 -313 51 -100 76 -123 113 -103 21 11 21 13 -30 159 -28 81 -68 187 -89
236 l-38 89 64 71 c69 76 77 98 52 159 -11 26 -11 38 -1 62 10 25 9 37 -4 70
-21 55 -73 134 -111 169 -27 26 -35 28 -59 20 -24 -8 -34 -4 -90 36 -34 25
-57 47 -51 49 5 1 14 14 19 27 9 22 15 24 71 24 50 0 60 -3 56 -15 -9 -21 5
-26 56 -19 50 7 49 5 63 106 l6 47 -65 41 c-36 23 -67 47 -70 53 -87 213 -176
411 -213 471 -57 95 -185 382 -178 400 6 17 -80 175 -123 225 -22 26 -47 42
-78 51 -26 7 -49 19 -52 27 -3 7 -10 13 -17 13 -6 0 -20 19 -31 43 -18 37 -24
42 -57 45 -57 5 -50 31 19 67 31 16 83 48 114 71 l57 42 28 -29 c38 -40 45
-36 21 11 -11 23 -18 42 -16 44 2 1 22 9 44 17 58 22 96 80 106 166 15 133 16
134 60 44 66 -134 191 -247 334 -301 65 -24 179 -32 250 -16 l40 8 -65 17
c-36 9 -80 26 -98 37 l-33 20 83 0 c93 -1 160 19 197 58 l22 23 -63 6 c-61 6
-154 32 -162 45 -2 4 21 7 53 8 31 0 67 7 81 14 25 14 24 14 -22 21 -75 11
-140 37 -180 69 -49 40 -107 158 -158 320 -74 238 -136 336 -245 386 -53 25
-114 31 -145 14 -13 -7 -27 -7 -43 1 -19 9 -31 8 -52 -4 -26 -13 -33 -12 -99
18 -223 102 -495 87 -610 -34 -17 -17 -39 -31 -50 -31 -56 0 -149 -114 -191
-237 -47 -135 -43 -277 10 -403 13 -30 33 -86 44 -125 23 -79 100 -212 154
-267 24 -23 64 -47 114 -66 77 -30 78 -31 75 -64 -5 -54 -10 -62 -52 -82 -52
-25 -77 -53 -103 -117 -13 -30 -40 -85 -61 -122 -34 -61 -37 -71 -26 -92 11
-20 9 -33 -13 -92 -55 -144 -59 -223 -17 -268 20 -22 21 -27 10 -81 -7 -33
-10 -85 -6 -119 5 -56 3 -63 -29 -115 -52 -81 -44 -169 17 -194 l27 -12 -32
-37 c-23 -27 -43 -39 -69 -44 l-37 -6 6 69 c3 38 12 76 19 85 16 18 18 62 4
89 -5 10 -12 56 -14 104 -3 54 -11 94 -21 109 -9 14 -47 152 -86 308 -89 361
-192 671 -229 694 -5 3 -10 17 -10 31 0 14 -6 24 -15 24 -8 0 -24 18 -35 41
-19 37 -24 40 -51 34 -28 -6 -30 -5 -27 17 2 12 7 21 11 20 5 -2 21 7 35 21
15 13 59 41 99 62 69 36 109 74 134 128 9 21 21 26 65 32 61 7 68 13 54 49 -7
19 -5 78 7 196 21 205 14 265 -46 385 -94 190 -278 308 -498 320 -53 3 -116
-1 -158 -9z m240 -11 c214 -38 397 -207 451 -416 18 -68 15 -172 -8 -352 -8
-64 -8 -95 0 -112 6 -13 7 -27 3 -30 -5 -3 -49 -8 -98 -11 l-89 -7 -23 29
c-12 16 -43 63 -70 104 -26 41 -62 90 -80 108 l-33 32 -162 0 c-129 0 -166 3
-182 15 -17 14 -15 15 32 9 40 -5 54 -3 67 11 19 19 22 47 7 76 -15 26 -74 26
-92 0 -14 -19 -18 -18 -121 34 -59 29 -147 69 -195 88 -100 39 -101 40 -52
138 75 149 244 260 432 288 91 13 123 12 213 -4z m1228 -154 c197 -51 322
-155 377 -317 11 -30 17 -54 15 -54 -2 0 -18 26 -35 58 -39 68 -161 192 -220
222 -54 27 -169 57 -257 65 -91 9 -205 -9 -273 -43 -70 -35 -92 -76 -92 -170
l0 -67 -20 50 c-13 33 -18 62 -14 85 3 19 2 30 -2 25 -4 -6 -20 -17 -36 -25
-53 -27 -114 -118 -158 -235 l-18 -50 5 45 c8 67 76 202 129 255 43 43 86 59
86 33 0 -7 10 1 21 19 26 41 101 89 169 107 81 22 231 20 323 -3z m303 -86 c3
-7 19 -18 35 -24 21 -7 29 -16 29 -35 0 -13 8 -38 17 -55 17 -28 17 -32 2 -46
-15 -15 -18 -13 -44 31 -15 26 -50 69 -78 95 -50 48 -50 48 -26 57 26 11 57 0
65 -23z m171 9 c101 -50 166 -156 238 -389 84 -269 144 -344 305 -381 l55 -13
-55 6 c-177 18 -243 96 -349 406 -57 167 -88 233 -137 286 -46 51 -90 71 -157
71 -60 0 -82 15 -45 29 41 17 93 12 145 -15z m-2262 -223 c145 -63 224 -104
255 -130 l25 -20 -65 -1 c-92 0 -218 17 -339 46 -119 28 -135 37 -120 65 13
25 99 88 119 89 9 0 65 -22 125 -49z m1309 -46 c49 -90 197 -188 328 -217 29
-6 69 -24 89 -40 20 -15 56 -39 80 -53 43 -24 44 -25 61 -112 11 -55 32 -119
58 -170 22 -44 40 -84 40 -87 0 -3 -29 -26 -64 -51 -73 -52 -216 -125 -293
-150 -52 -17 -53 -17 -135 10 -180 60 -224 97 -239 201 -16 113 -28 175 -48
249 -24 86 -26 193 -5 266 16 54 89 189 102 189 4 0 16 -16 26 -35z m-947 -62
c13 -19 12 -24 -6 -42 -25 -25 -35 -26 -55 -5 -20 20 -20 38 0 59 21 20 43 16
61 -12z m-401 -33 c22 -5 92 -14 155 -20 63 -6 119 -16 125 -23 6 -7 16 -50
22 -97 6 -47 18 -105 27 -130 21 -55 20 -143 -1 -260 -22 -120 -36 -145 -92
-164 -75 -26 -103 -21 -156 25 -32 28 -59 67 -87 123 -22 44 -56 100 -75 124
-19 24 -34 47 -34 51 0 4 11 13 23 18 13 6 32 28 42 48 19 41 17 69 -10 165
-8 30 -15 76 -15 102 0 53 3 55 76 38z m2166 -301 c43 -51 30 -149 -27 -206
-41 -41 -90 -46 -99 -10 -15 60 -18 137 -6 171 23 71 90 94 132 45z m-1756
-29 c16 0 15 -13 -12 -170 -19 -114 -39 -166 -66 -174 -12 -3 -23 -4 -25 -3
-1 2 7 31 17 66 11 35 26 115 32 177 10 89 15 113 26 109 8 -3 20 -5 28 -5z
m2342 -119 c47 -24 149 -51 192 -51 18 0 29 -4 25 -10 -9 -15 -93 -12 -160 5
-67 18 -120 55 -150 106 l-19 34 37 -32 c21 -18 55 -42 75 -52z m-2028 -211
l20 -40 -52 -34 c-29 -18 -97 -61 -150 -94 l-97 -60 -21 54 c-11 30 -20 59
-20 64 0 5 19 19 43 31 40 21 249 119 254 119 2 0 12 -18 23 -40z m50 -63 c0
-13 9 -32 20 -42 11 -10 20 -23 20 -28 0 -15 -40 24 -56 54 -13 25 -10 39 8
39 4 0 8 -11 8 -23z m1010 -56 c0 -24 -5 -31 -30 -36 -28 -6 -29 -9 -32 -63
l-3 -57 -31 3 c-29 3 -32 1 -38 -36 -3 -22 -13 -45 -21 -52 -8 -7 -15 -10 -15
-7 0 3 -7 32 -15 64 -9 36 -13 75 -9 105 6 46 7 47 53 58 25 6 62 20 81 30 49
27 60 25 60 -9z m-1390 -28 l-1 -48 -15 30 -14 30 5 -29 c3 -15 9 -41 12 -57
4 -24 1 -30 -18 -38 -32 -12 -34 3 -14 81 13 52 27 77 43 78 1 0 2 -21 2 -47z
m1435 17 c-3 -5 -11 -10 -16 -10 -6 0 -7 5 -4 10 3 6 11 10 16 10 6 0 7 -4 4
-10z m55 -45 c14 -42 14 -42 -44 -83 l-46 -33 -25 57 c-14 31 -24 58 -23 59
12 8 115 41 120 38 3 -2 12 -19 18 -38z m-1240 -15 c0 -4 -8 -14 -18 -23 -17
-16 -20 -15 -40 13 l-22 29 23 16 c20 15 23 14 40 -6 9 -12 17 -25 17 -29z
m158 41 c7 -4 14 -14 16 -22 1 -8 12 -29 24 -48 41 -66 38 -92 -24 -266 -31
-88 -83 -227 -116 -309 -33 -82 -66 -170 -74 -196 -8 -26 -20 -52 -27 -58 -37
-30 -212 -32 -312 -2 -78 22 -89 24 -81 11 8 -13 -19 -21 -69 -21 -37 0 -47 5
-64 29 -16 21 -35 32 -78 43 -32 8 -58 18 -57 23 0 6 4 51 8 101 l8 92 52 -14
c28 -8 52 -14 53 -14 1 0 0 6 -3 14 -4 9 6 20 25 30 39 21 45 20 89 -8 33 -21
47 -23 127 -21 88 3 91 2 130 -30 60 -48 98 -64 46 -19 -38 33 -41 39 -25 45
16 6 14 8 -8 8 -16 1 -28 7 -28 14 0 18 70 206 125 335 53 126 78 162 144 204
25 15 38 28 30 28 -19 0 -54 -24 -103 -69 -26 -24 -35 -29 -27 -15 12 26 88
99 128 125 30 20 69 24 91 10z m748 -9 c15 -9 -5 -104 -21 -99 -5 2 -11 27
-13 55 -3 52 6 63 34 44z m31 -24 c-3 -7 -5 -2 -5 12 0 14 2 19 5 13 2 -7 2
-19 0 -25z m-1128 -60 c9 2 11 -3 6 -15 -4 -10 -25 -67 -47 -128 -25 -71 -37
-96 -34 -70 3 22 8 72 12 110 4 39 11 75 16 82 5 6 7 29 3 50 l-6 38 19 -35
c10 -19 24 -34 31 -32z m125 36 c16 -24 16 -27 -3 -68 -12 -23 -21 -50 -21
-59 0 -9 -9 -41 -21 -72 -19 -52 -22 -55 -54 -55 -48 0 -65 -9 -64 -34 1 -16
2 -17 6 -4 4 16 67 37 78 27 2 -3 -19 -65 -46 -139 -28 -74 -53 -142 -56 -150
-13 -36 -24 41 -20 135 3 78 11 122 37 200 40 124 74 193 109 222 33 28 35 28
55 -3z m1217 -94 c7 0 31 16 54 35 23 19 45 31 49 28 3 -4 6 1 6 10 0 21 19
22 26 3 3 -8 20 -18 37 -22 18 -3 44 -12 58 -20 27 -14 85 -97 132 -191 l27
-51 -33 -29 c-43 -38 -96 -70 -127 -78 -23 -5 -28 -1 -48 41 -13 25 -26 44
-29 40 -4 -3 -1 -12 5 -18 18 -18 15 -49 -8 -85 -11 -18 -16 -33 -11 -33 5 0
17 16 26 37 15 30 19 33 27 20 5 -10 15 -17 22 -17 8 0 17 -7 20 -16 6 -17
-10 -171 -20 -199 -4 -10 -2 -15 7 -13 20 4 24 -55 5 -71 -20 -17 -192 -43
-233 -36 -31 6 -33 8 -33 48 0 53 -37 133 -87 189 -52 58 -83 173 -63 234 8
21 13 54 11 72 -1 23 5 38 19 50 12 10 25 33 29 52 6 32 9 35 39 32 32 -4 32
-3 33 45 l1 48 24 -52 c13 -29 29 -53 35 -53z m-221 61 c0 -11 -4 -23 -10 -26
-6 -4 -10 5 -10 19 0 14 5 26 10 26 6 0 10 -9 10 -19z m-38 -54 c-2 -5 11 -25
30 -45 38 -41 48 -94 28 -148 l-11 -28 -39 71 c-37 69 -67 173 -55 192 7 12
53 -30 47 -42z m-100 -63 c8 -13 -12 -94 -23 -94 -4 0 -10 17 -12 38 -2 20 -3
12 -2 -19 2 -30 -2 -76 -9 -101 -11 -45 -12 -46 -36 -32 -14 7 -37 13 -52 14
-37 0 -35 13 11 86 21 34 42 76 46 93 4 17 19 46 33 63 l27 32 6 -35 c3 -19 8
-39 11 -45z m151 49 c7 -36 2 -40 -23 -18 -15 14 -17 21 -9 32 17 20 26 16 32
-14z m-693 -130 c11 -71 11 -74 -30 -194 -49 -149 -52 -153 -91 -133 -16 8
-29 19 -29 24 0 5 20 62 44 127 24 65 53 149 66 186 12 38 24 67 26 65 2 -2 8
-36 14 -75z m594 -41 c14 -45 29 -100 32 -121 6 -35 4 -39 -25 -50 -17 -7 -36
-19 -42 -27 -28 -34 -59 9 -59 85 -1 41 52 213 62 203 3 -4 18 -44 32 -90z
m-484 -287 c38 -154 79 -299 91 -322 11 -23 18 -46 15 -52 -8 -12 -127 -84
-131 -79 -3 3 -19 77 -75 350 l-38 187 25 78 c18 59 23 93 20 138 l-5 60 15
-40 c8 -22 45 -166 83 -320z m-645 170 c0 -74 -2 -135 -5 -135 -9 0 -70 40
-70 45 0 3 6 18 13 33 8 15 24 64 37 110 12 45 24 82 24 82 1 0 2 -61 1 -135z
m-765 10 c0 -70 -4 -115 -10 -115 -6 0 -10 30 -10 69 0 68 9 161 16 161 2 0 4
-52 4 -115z m-147 53 c61 -72 118 -158 112 -168 -3 -5 -42 -21 -87 -36 -103
-34 -128 -57 -128 -120 0 -38 -7 -56 -37 -96 l-37 -51 -85 7 c-46 3 -86 7 -87
9 -1 1 4 54 12 117 7 63 17 164 21 225 l8 110 105 27 c148 38 150 38 203 -24z
m168 -6 c-4 -54 -11 -53 -11 3 0 27 3 45 7 41 4 -4 6 -24 4 -44z m24 -34 c-7
-99 -13 -128 -23 -128 -8 0 0 99 13 178 11 59 16 33 10 -50z m2598 -106 c33
-75 85 -182 118 -237 32 -55 87 -170 123 -255 35 -85 71 -172 80 -193 10 -22
33 -49 57 -65 91 -61 90 -60 79 -126 -5 -32 -11 -60 -12 -61 -2 -1 -20 -5 -40
-8 -29 -4 -38 -2 -38 9 0 14 17 19 55 16 13 -2 16 1 8 6 -7 4 -11 24 -10 44 3
33 1 37 -26 42 -16 3 -54 6 -85 6 l-55 0 6 33 c4 26 -1 39 -30 72 -186 215
-256 321 -273 412 -9 47 -36 113 -86 216 -44 87 -69 147 -62 147 7 0 38 18 68
39 30 22 57 39 60 40 3 0 31 -61 63 -137z m-3113 98 c0 -36 -27 -310 -36 -359
-5 -31 -7 -33 -22 -18 -21 21 -29 182 -13 256 13 62 50 151 62 151 5 0 9 -14
9 -30z m2226 1 c21 -13 33 -29 37 -52 3 -19 9 -43 12 -55 5 -17 0 -22 -34 -33
-22 -6 -51 -22 -64 -34 -13 -12 -16 -16 -7 -10 9 7 42 22 74 33 31 10 70 28
85 39 72 52 99 48 178 -23 53 -48 113 -150 113 -190 -1 -13 -6 -7 -15 18 -7
21 -21 46 -29 54 -11 12 -10 5 4 -24 24 -51 38 -138 20 -132 -7 2 -20 28 -29
59 -10 30 -23 63 -30 74 -12 20 -12 20 -6 0 36 -106 43 -145 26 -145 -6 0 -20
27 -32 60 -41 114 -85 100 -78 -25 2 -24 0 -47 -3 -51 -14 -14 -29 42 -26 96
2 40 0 56 -8 53 -7 -2 -23 19 -38 48 -14 29 -26 45 -26 35 0 -9 4 -25 9 -35 8
-14 2 -26 -27 -56 -81 -83 -125 -103 -179 -80 -71 30 -78 115 -24 263 57 153
48 143 97 113z m-1567 -55 c30 -25 69 -53 87 -62 20 -11 34 -26 34 -37 0 -22
-6 -19 -88 50 -34 29 -66 53 -71 53 -4 0 -19 -8 -32 -19 -13 -10 -34 -23 -46
-30 -21 -11 -23 -10 -23 18 0 22 8 34 33 50 17 11 37 21 42 21 6 0 34 -20 64
-44z m39 -68 c32 -29 72 -64 90 -78 31 -24 32 -27 26 -77 -7 -58 -17 -66 -68
-52 -38 10 -103 80 -98 105 2 11 -3 10 -25 -1 -15 -8 -32 -15 -37 -15 -12 0
-67 -48 -58 -52 4 -2 15 -18 24 -35 13 -25 14 -33 4 -33 -16 0 -66 70 -66 92
0 9 22 32 49 52 26 20 55 44 62 53 13 17 13 17 -5 3 -18 -14 -18 -13 -11 10
l7 25 -21 -27 c-12 -15 -36 -32 -54 -39 -21 -7 -41 -26 -55 -50 -22 -38 -42
-51 -42 -26 0 6 8 34 18 62 17 46 23 52 84 82 36 17 69 36 73 42 13 23 47 9
103 -41z m310 8 c34 -23 41 -24 91 -14 l55 11 28 -33 c22 -28 25 -36 14 -42
-17 -10 -143 15 -159 31 -17 17 -59 13 -92 -9 -28 -18 -30 -18 -37 -2 -6 16
-7 16 -7 0 -1 -14 -10 -17 -56 -15 -41 2 -54 5 -50 15 3 8 5 24 5 36 0 22 2
22 48 13 41 -9 52 -7 82 12 19 11 36 21 38 21 1 0 19 -11 40 -24z m2051 -296
c9 -48 25 -84 58 -135 56 -84 139 -192 203 -260 40 -44 46 -55 42 -83 -4 -31
-22 -46 -22 -19 0 8 -9 22 -20 32 -17 15 -43 19 -155 23 l-135 5 0 47 c0 27
-16 104 -37 172 -20 67 -38 136 -41 151 -2 16 -10 31 -18 34 -18 7 -27 73 -15
107 9 21 7 34 -5 57 -13 26 -14 42 -5 99 6 38 11 72 12 77 0 4 28 -48 63 -117
41 -81 67 -148 75 -190z m-2618 253 c-18 -34 -37 -108 -37 -143 1 -29 5 -36
24 -38 13 -2 32 4 41 12 16 15 19 15 32 -1 42 -51 49 -49 -109 -45 -96 3 -150
8 -154 16 -15 23 -9 113 10 135 14 18 190 93 200 85 2 -1 -1 -10 -7 -21z m799
-19 c0 -18 -4 -18 -24 5 -17 19 -17 19 3 14 12 -3 21 -12 21 -19z m360 -118
c0 -16 -37 -28 -45 -16 -7 11 24 42 36 35 5 -4 9 -12 9 -19z m-843 -51 c25 -5
32 -12 35 -33 3 -24 9 -28 63 -40 46 -10 66 -20 86 -44 l26 -31 89 6 c67 5
108 3 164 -10 41 -9 76 -18 78 -19 2 -1 9 -28 17 -60 22 -97 12 -106 -170
-149 -150 -35 -296 -83 -380 -125 -63 -32 -73 -40 -98 -90 -54 -110 -47 -220
24 -345 17 -30 56 -129 89 -222 32 -92 77 -220 100 -283 34 -97 40 -123 35
-165 -3 -27 -7 -71 -8 -96 -3 -58 -15 -73 -99 -115 -50 -25 -69 -41 -74 -59
-5 -21 -12 -25 -46 -25 -50 0 -94 23 -102 52 -3 13 -6 75 -6 138 -1 266 -48
396 -226 622 -35 45 -64 85 -64 90 0 12 229 950 232 953 7 6 100 35 113 35 8
0 22 11 31 25 14 22 18 23 37 11 12 -8 36 -17 54 -21z m884 -161 c21 -98 38
-184 38 -191 1 -20 -61 -25 -178 -14 -143 15 -171 21 -171 36 0 10 9 10 41 -2
23 -7 82 -16 133 -19 134 -9 131 -13 95 166 -19 91 -35 148 -44 153 -22 12
-18 36 8 47 12 5 26 8 31 6 6 -1 27 -83 47 -182z m-1294 118 c83 -4 94 -6 87
-20 -66 -151 -188 -526 -218 -674 -30 -143 -18 -187 77 -299 79 -93 164 -214
198 -281 54 -107 69 -185 78 -404 10 -223 17 -252 73 -275 55 -23 295 -16 470
15 192 33 346 71 433 106 39 16 96 31 128 35 75 8 161 34 272 80 50 21 118 48
153 61 l63 24 -18 -31 c-10 -17 -48 -60 -85 -95 -72 -68 -80 -90 -48 -119 13
-12 17 -22 11 -28 -5 -5 -67 -13 -138 -18 -243 -16 -264 -23 -303 -99 l-19
-37 -323 -7 c-431 -8 -831 4 -875 27 -40 21 -50 53 -57 194 -11 192 -50 372
-99 453 -12 19 -90 105 -173 191 -83 85 -162 175 -175 200 -60 114 -6 376 142
684 53 111 131 244 181 310 31 41 34 42 52 27 13 -13 42 -18 113 -20z m159
-19 c-3 -10 -55 -222 -116 -472 -61 -250 -112 -457 -114 -459 -2 -2 -14 12
-27 30 -39 54 -39 157 1 310 38 150 138 452 179 542 26 57 33 66 56 66 21 0
25 -4 21 -17z m2141 -20 c-3 -10 -5 -4 -5 12 0 17 2 24 5 18 2 -7 2 -21 0 -30z
m-652 -210 c6 -50 11 -76 21 -118 5 -18 1 -32 -12 -46 -26 -28 -119 -75 -191
-95 -77 -21 -119 -10 -209 57 -38 29 -102 67 -142 86 -41 19 -72 36 -70 38 6
5 182 -23 238 -39 30 -9 78 -15 105 -15 45 1 43 2 -23 10 -77 9 -131 28 -81
29 61 0 252 76 314 124 33 25 43 19 50 -31z m1318 -256 c33 -38 -1 -44 -186
-31 -88 6 -107 10 -103 21 4 8 6 21 6 29 0 13 19 14 133 9 117 -6 134 -9 150
-28z m195 -49 c7 -7 12 -22 12 -35 0 -27 -14 -31 -130 -35 -77 -3 -94 -8 -170
-46 -91 -44 -120 -51 -120 -27 0 22 56 81 106 110 64 38 274 61 302 33z m-302
-13 c-11 -8 -28 -15 -39 -15 -11 0 -15 -4 -11 -12 5 -7 3 -8 -6 -3 -20 12
-121 9 -130 -5 -5 -8 -9 -7 -14 5 -16 43 -11 45 107 45 101 -1 110 -2 93 -15z
m-964 -39 c46 -18 100 -39 120 -45 l38 -12 -37 -72 c-50 -100 -55 -128 -36
-212 13 -54 16 -122 15 -299 -1 -187 2 -235 14 -259 13 -24 13 -34 3 -58 -24
-60 -186 -176 -210 -152 -6 6 1 33 21 74 16 35 30 76 30 91 0 54 -45 250 -149
641 -35 135 -38 165 -15 210 17 33 102 127 116 127 4 0 45 -15 90 -34z m-198
9 c-8 -19 -36 -35 -64 -35 -20 0 -20 1 -4 25 19 29 78 37 68 10z m996 -8 c0
-7 -7 -22 -15 -33 -13 -17 -13 -16 -3 14 13 34 18 40 18 19z m-32 -35 c-2 -9
5 -18 15 -20 10 -2 17 3 17 12 0 9 5 16 10 16 6 0 10 7 10 15 0 8 5 15 10 15
6 0 10 -5 10 -11 0 -6 8 -8 19 -4 18 5 18 3 8 -19 -7 -14 -16 -26 -20 -26 -5
0 -6 4 -2 9 3 5 1 12 -4 16 -6 3 -15 -4 -21 -16 -7 -13 -8 -19 -2 -15 6 3 13
3 16 -2 6 -10 -1 -11 -64 -15 -25 -2 -51 -6 -57 -10 -7 -5 -9 0 -6 13 3 11 10
17 15 14 5 -3 8 0 7 7 -2 8 1 24 5 37 6 19 10 21 22 11 8 -6 13 -19 12 -27z
m-975 -8 c3 -3 -1 -21 -10 -39 -14 -30 -18 -32 -48 -25 -18 4 -40 3 -50 -3
-14 -7 -16 -7 -10 3 6 10 4 12 -9 7 -10 -4 -21 -7 -24 -7 -4 0 -1 -4 6 -8 8
-6 2 -9 -18 -9 -21 0 -27 3 -18 9 8 6 0 7 -22 4 -30 -5 -32 -5 -11 4 13 6 33
8 44 4 13 -4 17 -2 13 5 -5 7 -1 8 10 4 10 -4 15 -2 11 3 -7 11 46 41 83 47
42 7 46 7 53 1z m720 -32 l58 -27 -28 -41 c-15 -23 -56 -71 -90 -107 -54 -59
-62 -63 -67 -44 -3 12 -8 18 -12 15 -3 -4 5 -42 19 -85 41 -124 47 -171 57
-435 11 -246 10 -251 -11 -292 -24 -48 -67 -96 -85 -96 -28 0 -44 44 -44 121
0 65 -11 115 -79 350 -44 151 -93 303 -110 339 -47 99 -40 159 33 275 24 39
26 40 108 52 111 15 181 8 251 -25z m588 -43 c96 -61 224 -224 275 -350 29
-70 29 -82 7 -115 -16 -25 -17 -25 -31 -8 -12 18 -13 17 -7 -6 5 -22 -3 -34
-52 -82 -64 -60 -60 -59 -228 -74 -103 -9 -242 -31 -400 -65 -77 -16 -154 -32
-171 -35 l-31 -6 -6 168 c-6 159 -12 202 -53 341 -5 17 5 34 45 76 51 54 52
54 123 59 50 4 75 10 83 22 15 20 44 20 137 1 189 -40 313 -99 414 -200 39
-38 85 -95 102 -125 18 -30 32 -50 32 -44 0 24 -81 132 -143 192 -98 93 -298
179 -463 198 -44 6 -54 10 -54 26 0 23 26 33 107 42 39 4 64 3 68 -4 9 -14 56
-12 85 5 44 25 107 19 161 -16z m-1391 -49 c0 -27 -4 -50 -10 -50 -5 0 -9 6
-7 12 1 10 -30 13 -125 14 -110 1 -126 0 -121 -14 6 -13 -2 -14 -53 -8 -32 5
-79 8 -104 8 l-45 -1 45 14 c35 10 40 14 20 15 -20 2 -21 3 -6 7 15 4 16 7 5
15 -11 8 -10 9 4 4 10 -3 28 -6 40 -6 18 0 19 -2 7 -10 -10 -6 -11 -10 -3 -10
7 0 12 -5 10 -12 -1 -6 7 -13 18 -15 l20 -3 -20 9 c-18 9 -17 10 10 11 l30 2
-30 8 -30 8 30 2 c28 3 28 3 5 7 -87 16 21 20 248 10 44 -2 52 1 52 16 0 9 2
17 5 17 3 0 5 -22 5 -50z m44 11 c3 -22 9 -46 12 -55 4 -11 1 -16 -10 -16 -21
0 -59 -38 -51 -50 4 -6 20 1 39 15 30 23 32 23 33 4 1 -11 -3 -17 -9 -13 -6 4
-14 1 -18 -5 -4 -7 -19 -13 -33 -15 -15 -1 -30 -6 -34 -9 -10 -10 -25 -8 -19
2 4 5 -3 7 -15 4 -16 -5 -18 -8 -7 -15 8 -6 1 -7 -22 -3 -26 5 -31 4 -20 -4
13 -9 12 -11 -5 -12 -11 -1 -28 -2 -37 -1 -10 1 -18 -3 -18 -9 0 -5 -5 -7 -11
-3 -8 5 -8 9 1 14 25 16 -24 30 -61 19 -19 -6 -121 -13 -226 -16 -186 -5 -193
-5 -193 14 0 10 6 28 14 39 13 17 15 17 21 2 6 -14 28 -17 178 -18 95 -1 213
-2 263 -4 90 -2 90 -2 86 21 -4 21 -1 23 37 23 67 0 80 11 73 66 -4 37 -2 45
8 39 10 -6 12 -4 7 8 -3 10 -3 17 2 17 5 0 11 -18 15 -39z m-674 5 c0 -2 -9
-24 -20 -48 -34 -77 -52 -162 -40 -192 16 -44 65 -66 146 -66 l70 0 54 -111
53 -111 -41 -121 c-39 -113 -67 -245 -74 -342 -3 -39 -4 -40 -57 -57 -30 -10
-56 -16 -59 -14 -2 3 -7 19 -12 38 -4 18 -16 54 -26 80 -18 47 -18 48 4 71 31
33 28 73 -8 114 l-30 34 0 132 c0 214 -26 374 -70 430 -17 21 -19 31 -11 46
16 28 13 57 -5 76 -9 9 -14 18 -12 21 11 10 138 29 138 20z m203 -21 c5 -11 0
-15 -18 -15 -14 0 -25 -5 -25 -10 0 -7 -6 -7 -19 0 -11 5 -37 10 -58 11 -34 1
-35 2 -13 9 l25 8 -27 1 c-16 1 -28 -4 -28 -10 0 -5 -4 -7 -10 -4 -25 16 -3
23 79 24 72 2 90 -1 94 -14z m2017 -47 c72 -90 110 -185 81 -202 -5 -3 -23 18
-39 47 -17 30 -54 84 -82 122 -39 51 -48 70 -38 76 24 16 36 9 78 -43z m-2180
18 c0 5 20 8 45 6 25 -2 45 -9 45 -14 0 -6 -19 -8 -45 -6 -25 2 -45 0 -45 -4
0 -26 16 -38 54 -39 38 -2 37 -2 -14 -9 -47 -5 -57 -4 -68 12 -7 10 -18 16
-24 12 -5 -3 -2 8 7 26 13 26 19 29 31 19 8 -6 14 -7 14 -3z m330 -61 c0 -11
-11 -15 -40 -15 -29 0 -40 4 -40 15 0 11 11 15 40 15 29 0 40 -4 40 -15z
m-1864 -72 c13 -71 47 -118 195 -269 82 -83 149 -155 149 -158 0 -6 -18 -46
-25 -54 -1 -1 -25 6 -53 17 -137 54 -207 66 -402 65 -158 0 -198 -3 -275 -22
-100 -25 -175 -51 -237 -83 -39 -20 -42 -20 -54 -4 -18 24 -7 79 34 165 46 97
165 219 267 272 123 64 258 105 357 107 35 1 37 -1 44 -36z m2214 18 c0 -11
-42 -61 -98 -118 -98 -97 -170 -196 -250 -343 -41 -75 -102 -241 -102 -276 0
-11 16 28 36 86 64 191 193 399 333 539 61 61 86 80 91 70 11 -20 117 -452
131 -531 17 -104 12 -110 -161 -179 -80 -32 -172 -67 -205 -78 -68 -23 -229
-51 -292 -51 -43 0 -43 0 -43 36 0 77 33 242 71 351 21 62 39 121 39 131 0 10
-23 65 -50 122 -28 56 -49 104 -48 105 4 3 355 109 443 134 91 25 105 26 105
2z m-290 -1 c0 -5 -3 -10 -7 -10 -5 0 -18 -3 -30 -6 -13 -4 -23 -2 -23 4 0 9
9 13 53 21 4 0 7 -3 7 -9z m-463 -33 c-2 -6 0 -16 5 -22 5 -5 14 -17 21 -25 7
-8 11 -13 9 -11 -3 7 30 41 40 41 5 0 6 -5 2 -11 -4 -8 0 -8 15 0 23 13 148
11 169 -2 13 -9 7 -27 -9 -27 -6 0 -7 5 -4 10 3 6 -2 10 -12 10 -10 0 -42 3
-70 6 -39 5 -53 3 -53 -6 0 -7 7 -10 17 -6 22 9 103 -4 103 -15 0 -5 -12 -7
-27 -3 -22 4 -25 3 -13 -5 13 -9 13 -11 -2 -11 -10 0 -18 6 -18 13 0 8 -16 12
-44 12 -25 0 -40 -2 -34 -6 14 -9 1 -29 -19 -29 -24 0 -83 31 -77 41 3 5 1 9
-3 9 -5 0 -9 13 -8 29 0 16 4 27 8 24 4 -3 6 -10 4 -16z m458 3 c-3 -5 -10
-10 -16 -10 -5 0 -9 5 -9 10 0 6 7 10 16 10 8 0 12 -4 9 -10z m-35 -8 c0 -4
-12 -9 -27 -10 -16 -1 -30 -7 -31 -12 -2 -6 -8 -8 -13 -5 -5 3 -18 1 -29 -5
-16 -9 -24 -7 -38 6 -16 17 -16 18 2 11 10 -4 24 -3 30 2 6 5 29 11 51 14 22
2 43 4 48 5 4 1 7 -2 7 -6z m735 -316 c36 -126 63 -232 58 -236 -4 -4 -27 -12
-50 -17 -38 -10 -45 -8 -68 13 -14 13 -26 29 -27 36 0 7 -1 117 -2 245 -1 178
2 227 10 210 6 -12 42 -125 79 -251z m-1011 239 c-10 -8 -26 -14 -34 -14 -11
0 -10 3 4 14 11 8 27 15 35 15 11 0 10 -4 -5 -15z m1906 -335 c-19 -5 -112
-25 -206 -44 -95 -20 -222 -51 -285 -70 -82 -25 -118 -32 -131 -25 -46 25 -24
33 234 84 217 43 515 85 388 55z m-3454 -25 c4 -8 -1 -45 -10 -83 l-17 -67
-67 0 c-43 -1 -78 -7 -98 -17 l-31 -17 -32 39 c-48 60 -58 87 -39 107 30 29
119 52 206 53 64 0 84 -3 88 -15z m197 -117 c19 -24 40 -54 47 -68 17 -33 40
-119 40 -152 0 -26 -3 -28 -42 -28 -24 0 -59 3 -79 6 -33 6 -37 10 -43 43 -3
21 -19 56 -36 79 -16 23 -30 45 -30 48 0 4 16 36 36 71 40 73 49 73 107 1z
m2882 -5 c14 -21 25 -43 25 -50 0 -28 -146 -111 -175 -99 -8 3 -16 29 -20 63
-4 32 -7 64 -8 72 -1 10 18 21 53 32 82 26 96 24 125 -18z m-3382 -65 l38 -33
-22 -43 c-23 -45 -30 -116 -17 -163 7 -24 4 -26 -60 -47 -38 -12 -71 -22 -75
-22 -12 0 -27 76 -27 140 0 77 13 130 46 188 24 41 25 42 52 28 15 -8 44 -29
65 -48z m2941 36 c16 -40 6 -60 -39 -82 l-45 -22 0 31 c0 17 -4 39 -10 49 -8
15 -5 20 18 28 41 15 69 14 76 -4z m246 6 c0 -5 -2 -10 -4 -10 -3 0 -8 5 -11
10 -3 6 -1 10 4 10 6 0 11 -4 11 -10z m-2938 -18 c17 -7 16 -11 -8 -57 -33
-64 -38 -68 -60 -61 -22 7 -89 84 -81 93 3 2 23 11 44 18 41 15 78 17 105 7z
m127 -78 c21 -26 48 -100 40 -108 -6 -6 -113 14 -122 23 -9 9 42 111 55 111 4
0 16 -12 27 -26z m-277 -31 c24 -21 44 -38 45 -38 1 -1 0 -18 -4 -39 -5 -33
-12 -40 -64 -66 l-58 -30 -7 23 c-17 54 9 187 37 187 5 0 28 -17 51 -37z
m3346 -38 c7 -60 -50 -235 -77 -235 -4 0 -26 13 -47 29 -89 68 -87 65 -92 129
l-4 61 73 21 c41 12 79 23 84 25 6 2 21 3 35 2 20 -2 26 -8 28 -32z m-3081
-76 c43 -11 45 -13 39 -43 -7 -32 -53 -97 -74 -104 -7 -2 -23 19 -36 48 -23
49 -23 53 -8 81 19 33 18 33 79 18z m144 -40 c35 -12 66 -22 67 -24 10 -10
-70 -136 -116 -183 -60 -62 -62 -61 -107 21 l-29 55 32 30 c18 17 42 51 53 76
11 25 23 46 28 46 4 0 37 -9 72 -21z m-303 -16 c22 -5 72 -85 72 -114 0 -8
-23 -10 -73 -7 -60 3 -82 8 -115 31 -23 15 -42 33 -42 40 0 19 92 68 115 61
11 -3 30 -8 43 -11z m-137 -87 c47 -40 114 -59 174 -50 l44 6 21 -68 c14 -47
17 -71 10 -78 -21 -21 -155 -20 -227 3 -75 23 -158 78 -175 117 -10 21 -8 27
12 42 13 9 38 27 55 39 16 12 34 22 38 23 5 0 27 -15 48 -34z m3215 -37 c25
-37 26 -40 10 -58 -31 -34 -136 -74 -208 -79 l-68 -5 0 28 c0 35 61 97 111
114 20 6 49 25 64 41 26 27 30 29 46 14 10 -9 30 -33 45 -55z m-353 -40 c30
-46 31 -51 16 -66 -16 -16 -93 24 -138 71 l-35 36 65 0 65 0 27 -41z"/>
<path d="M3792 4608 c-20 -20 -13 -32 8 -13 17 15 24 16 47 6 23 -11 25 -10
13 3 -15 19 -51 21 -68 4z"/>
<path d="M4239 4427 c-14 -30 0 -82 22 -82 10 0 14 13 14 49 0 56 -18 72 -36
33z"/>
<path d="M3847 4423 c-12 -11 -7 -79 6 -98 19 -25 37 -10 37 31 0 52 -23 88
-43 67z"/>
<path d="M3950 4195 c0 -8 4 -15 10 -15 5 0 7 7 4 15 -4 8 -8 15 -10 15 -2 0
-4 -7 -4 -15z"/>
<path d="M4150 4074 c-15 -9 -40 -13 -64 -10 -27 3 -35 2 -25 -5 24 -15 76
-10 100 11 28 23 24 24 -11 4z"/>
<path d="M2594 4652 c-21 -17 -49 -61 -42 -67 2 -2 25 17 51 41 35 32 44 44
30 44 -10 0 -28 -8 -39 -18z"/>
<path d="M2592 4560 c-8 -22 -1 -84 12 -97 3 -3 12 -3 21 0 22 9 19 70 -4 98
l-20 24 -9 -25z"/>
<path d="M2678 4185 c-10 -13 -30 -26 -45 -28 l-28 -4 26 -2 c29 -1 74 29 68
46 -2 6 -12 1 -21 -12z"/>
<path d="M4621 4364 c-25 -31 -27 -57 -6 -74 11 -9 12 -17 5 -30 -6 -10 -10
-29 -10 -41 0 -18 3 -20 12 -11 7 7 20 12 30 12 18 0 38 28 38 52 -1 7 -7 1
-15 -13 -15 -28 -55 -46 -55 -25 0 7 5 17 11 23 9 9 8 18 -5 38 -20 30 -14 60
15 75 23 13 39 5 39 -17 0 -9 3 -14 6 -10 3 3 3 15 -1 26 -9 29 -39 26 -64 -5z"/>
<path d="M3028 3253 c7 -3 16 -2 19 1 4 3 -2 6 -13 5 -11 0 -14 -3 -6 -6z"/>
<path d="M3068 3253 c7 -3 16 -2 19 1 4 3 -2 6 -13 5 -11 0 -14 -3 -6 -6z"/>
<path d="M2612 3170 c0 -19 2 -27 5 -17 2 9 2 25 0 35 -3 9 -5 1 -5 -18z"/>
<path d="M2602 3110 c0 -14 2 -19 5 -12 2 6 2 18 0 25 -3 6 -5 1 -5 -13z"/>
<path d="M4410 3760 c-12 -16 -19 -30 -16 -30 2 0 14 14 26 30 12 17 19 30 16
30 -2 0 -14 -13 -26 -30z"/>
<path d="M4500 3649 c-12 -22 -20 -44 -18 -49 2 -4 13 14 25 41 26 59 21 65
-7 8z"/>
<path d="M4475 3191 c-6 -5 -32 -19 -60 -30 -27 -11 -45 -20 -38 -20 17 -1
100 36 107 48 9 13 3 14 -9 2z"/>
<path d="M4338 3133 c7 -3 16 -2 19 1 4 3 -2 6 -13 5 -11 0 -14 -3 -6 -6z"/>
<path d="M1747 2523 c-53 -85 -93 -256 -69 -292 37 -54 121 121 125 260 2 52
-1 64 -15 67 -11 2 -25 -10 -41 -35z m48 -37 c-13 -103 -71 -256 -97 -256 -30
0 -15 132 27 227 47 104 81 119 70 29z"/>
<path d="M4646 2433 c-6 -14 -5 -15 5 -6 7 7 10 15 7 18 -3 3 -9 -2 -12 -12z"/>
<path d="M4668 2393 c6 -2 18 -2 25 0 6 3 1 5 -13 5 -14 0 -19 -2 -12 -5z"/>
<path d="M3640 2276 c0 -9 5 -16 10 -16 6 0 10 4 10 9 0 6 -4 13 -10 16 -5 3
-10 -1 -10 -9z"/>
<path d="M3466 2161 c-3 -5 1 -11 9 -15 9 -3 15 0 15 9 0 16 -16 20 -24 6z"/>
<path d="M3128 2293 c7 -3 16 -2 19 1 4 3 -2 6 -13 5 -11 0 -14 -3 -6 -6z"/>
<path d="M3004 2263 c3 -6 1 -13 -5 -15 -6 -2 -1 -12 12 -23 l22 -20 -8 25
c-4 14 -12 30 -18 35 -7 7 -8 6 -3 -2z"/>
<path d="M3018 2043 c7 -3 16 -2 19 1 4 3 -2 6 -13 5 -11 0 -14 -3 -6 -6z"/>
<path d="M3120 4530 c-39 -41 -47 -70 -25 -86 12 -9 15 -19 10 -35 -5 -14 -4
-19 4 -15 16 10 14 37 -5 58 -14 14 -14 20 -4 33 17 20 37 19 49 -2 10 -17 10
-17 11 0 0 10 -9 21 -21 25 l-20 8 20 18 c18 16 23 17 37 5 15 -12 17 -12 12
1 -8 27 -38 22 -68 -10z"/>
<path d="M3175 4417 c-11 -16 -35 -35 -54 -41 -19 -6 -36 -18 -39 -26 -3 -12
-2 -12 6 -2 5 8 24 17 43 21 23 5 39 17 52 39 25 42 18 49 -8 9z"/>
</g>
</svg>
