<?xml version="1.0" encoding="utf-8"?>
<!DOCTYPE svg PUBLIC "-//W3C//DTD SVG 20010904//EN" "http://www.w3.org/TR/2001/REC-SVG-20010904/DTD/svg10.dtd">
<svg version="1.0" xmlns="http://www.w3.org/2000/svg" width="512px" height="512px" viewBox="0 0 512 512" preserveAspectRatio="xMidYMid meet">
 <g fill="#4267b2">
  <path d="M241 510.9 c-89.2 -5 -169.8 -57.3 -211.4 -137 -19.7 -37.8 -28.7 -74.7 -28.7 -117.9 0 -42.6 8.5 -78.2 27.7 -116 34.8 -68.6 101.3 -119.3 176.4 -134.4 32.7 -6.6 73.2 -6.4 104.5 0.5 66.3 14.6 123.6 54.2 160.7 110.9 16.6 25.4 29.7 56.9 35.8 86.2 7 33.5 6.9 72.7 -0.1 105.8 -18.7 87.6 -82.7 159.8 -167.2 188.6 -5.4 1.9 -10.3 3.4 -10.8 3.4 -0.5 0 -0.9 -37.1 -0.9 -94 l0 -94 27.7 -0.2 27.7 -0.3 3.7 -29 c2.1 -15.9 4 -30.5 4.3 -32.2 l0.5 -3.3 -32 0 -32.1 0 0.4 -25.8 c0.3 -17.9 0.8 -26.8 1.8 -29.2 2.2 -6 6 -10.1 11.9 -12.9 5.4 -2.5 6.3 -2.6 28.4 -2.9 l22.7 -0.4 0 -28.8 0 -28.8 -3.5 -0.6 c-6.7 -1.3 -47.2 -2.4 -56.3 -1.5 -12.5 1.1 -20 3.2 -31.2 8.6 -7.9 3.8 -10.8 5.9 -18.1 13.2 -7.3 7.3 -9.4 10.2 -13.2 18.1 -8.1 16.7 -8.9 21.6 -9.4 58.7 l-0.5 32.3 -27.4 0 -27.4 0 0 32.5 0 32.5 27.5 0 27.5 0 0 98.9 0 98.9 -2.2 0.6 c-1.3 0.3 -2.5 0.5 -2.8 0.4 -0.3 0 -6.6 -0.4 -14 -0.9z"/>
 </g>
</svg>