<svg height="512pt" viewBox="0 -7 512.00061 512" width="512pt" xmlns="http://www.w3.org/2000/svg"><path d="m395.082031 170.871094h-27.164062l17.675781 169.757812c1.558594 28.023438-7.019531 44.058594-15.984375 53.085938-7.335937 7.382812-16.296875 11.046875-25.371094 11.046875h-32.449219c-8.367187 0-14.765624-7.453125-13.503906-15.722657 6.773438-44.324218 15.46875-100.753906 15.46875-100.753906h-139.953125c-34.121093 0-67.425781 10.4375-95.441406 29.914063-44.003906 29.5625-62.597656 73.632812-70.164063 100.234375-3.253906 11.457031 5.359376 22.839844 17.265626 22.839844h351.164062 36.0625c34.503906 0 42.121094-27.136719 42.519531-62.835938 1.066407-96.207031-60.125-207.566406-60.125-207.566406zm0 0" fill="#64dcfc"/><path d="m455.210938 378.433594c-.324219 28.445312-5.222657 51.46875-24.65625 59.640625 4.695312-11.929688 6.277343-27.46875 6.457031-44.835938.929687-91.804687-44.878907-196.128906-57.140625-222.367187h15.207031s61.199219 111.359375 60.132813 207.5625zm0 0" fill="#00d1fc"/><path d="m488.269531 444.535156c0 25.027344-20.289062 45.316406-45.316406 45.316406s-45.316406-20.289062-45.316406-45.316406 20.289062-45.316406 45.316406-45.316406 45.316406 20.289062 45.316406 45.316406zm0 0" fill="#838383"/><path d="m488.269531 444.53125c0 25.03125-20.289062 45.316406-45.316406 45.316406-10.84375 0-20.796875-3.804687-28.59375-10.15625 5.546875 2.425782 11.671875 3.769532 18.117187 3.769532 25.027344 0 45.316407-20.289063 45.316407-45.316407 0-14.191406-6.523438-26.851562-16.734375-35.164062 16.015625 6.988281 27.210937 22.964843 27.210937 41.550781zm0 0" fill="#706f6f"/><path d="m460.78125 444.535156c0 9.847656-7.984375 17.828125-17.828125 17.828125-9.847656 0-17.832031-7.980469-17.832031-17.828125s7.984375-17.828125 17.832031-17.828125c9.84375 0 17.828125 7.980469 17.828125 17.828125zm0 0" fill="#efe2dd"/><path d="m177.964844 444.535156c0 25.027344-20.289063 45.316406-45.316406 45.316406-25.027344 0-45.316407-20.289062-45.316407-45.316406s20.289063-45.316406 45.316407-45.316406c25.027343 0 45.316406 20.289062 45.316406 45.316406zm0 0" fill="#838383"/><path d="m177.964844 444.53125c0 25.03125-20.289063 45.316406-45.316406 45.316406-10.84375 0-20.796876-3.804687-28.59375-10.15625 5.546874 2.425782 11.675781 3.769532 18.121093 3.769532 25.023438 0 45.316407-20.289063 45.316407-45.316407 0-14.191406-6.527344-26.851562-16.738282-35.164062 16.019532 6.988281 27.210938 22.964843 27.210938 41.550781zm0 0" fill="#706f6f"/><path d="m150.476562 444.535156c0 9.847656-7.980468 17.828125-17.828124 17.828125-9.847657 0-17.828126-7.980469-17.828126-17.828125s7.980469-17.828125 17.828126-17.828125c9.847656 0 17.828124 7.980469 17.828124 17.828125zm0 0" fill="#efe2dd"/><path d="m50.027344 441.273438c0-46.453126 37.660156-84.113282 84.113281-84.113282s84.113281 37.660156 84.113281 84.113282zm0 0" fill="#7ca1b1"/><path d="m218.253906 441.277344h-24.179687c0-42.347656-31.296875-77.382813-72.023438-83.246094 3.949219-.574219 7.980469-.867188 12.09375-.867188 46.449219 0 84.109375 37.65625 84.109375 84.113282zm0 0" fill="#678d98"/><path d="m379.792969 441.273438c0-34.882813 28.277343-63.160157 63.160156-63.160157 29.378906 0 54.074219 20.058594 61.132813 47.230469 2.097656 8.0625-4.023438 15.929688-12.355469 15.929688zm0 0" fill="#7ca1b1"/><path d="m491.730469 441.277344h-6.960938c0-31.242188-22.6875-57.1875-52.484375-62.257813 3.464844-.59375 7.035156-.90625 10.671875-.90625 29.378907 0 54.070313 20.0625 61.128907 47.234375 2.097656 8.0625-4.023438 15.929688-12.355469 15.929688zm0 0" fill="#678d98"/><path d="m439.929688 104.640625c14.433593 0 26.132812 14.074219 26.132812 31.433594s-11.699219 31.433593-26.132812 31.433593zm0 0" fill="#f5d573"/><path d="m413.800781 170.644531h-49.414062c-8.496094 0-15.386719-6.890625-15.386719-15.386719v-38.363281c0-8.5 6.890625-15.390625 15.386719-15.390625h49.414062zm0 0" fill="#7ca1b1"/><path d="m394.949219 101.503906h18.851562v69.140625h-18.851562zm0 0" fill="#678d98"/><path d="m418.714844 175.082031h16.300781c2.714844 0 4.914063-2.199219 4.914063-4.914062v-68.1875c0-2.714844-2.199219-4.914063-4.914063-4.914063h-16.300781c-2.714844 0-4.917969 2.199219-4.917969 4.914063v68.1875c.003906 2.714843 2.203125 4.914062 4.917969 4.914062zm0 0" fill="#838383"/><path d="m296.488281 246.554688h-119.914062c-4.183594 0-6.71875 5.328124-4.464844 9.394531l7.394531 13.34375c6.554688 11.832031 17.898438 18.992187 30.085938 18.992187h104.164062l2.375-19.105468c0-12.496094-8.792968-22.625-19.640625-22.625zm0 0" fill="#7ca1b1"/><path d="m316.132812 269.183594-2.378906 19.105468h-24.28125l2.214844-17.796874c0-10.570313-5.359375-19.6875-13.128906-23.941407h17.925781c10.851563 0 19.648437 10.136719 19.648437 22.632813zm0 0" fill="#678d98"/><path d="m328.816406 12.511719c0-3.417969 3.390625-5.902344 6.601563-4.722657 9.1875 3.394532 15.871093 13.683594 15.871093 25.847657 0 12.167969-6.683593 22.457031-15.871093 25.847656-3.210938 1.183594-6.601563-1.300781-6.601563-4.71875zm0 0" fill="#838383"/><path d="m349 149.320312h-41.015625c-4.042969 0-7.324219-3.277343-7.324219-7.324218v-13.785156c0-4.046876 3.277344-7.324219 7.324219-7.324219h41.015625zm0 0" fill="#838383"/><path d="m328.816406 120.886719h20.183594v28.433593h-20.183594zm0 0" fill="#706f6f"/><path d="m511.34375 423.457031c-6.375-24.527343-25.207031-43.210937-48.660156-50.027343-.355469-34.308594-8.03125-73.769532-22.902344-117.46875l-3.304688-9.429688-.839843-2.328125c-1.410157-3.894531-5.707031-5.90625-9.601563-4.5-3.890625 1.410156-5.90625 5.707031-4.496094 9.601563l4.070313 11.546874c13.929687 40.941407 21.324219 77.871094 22.042969 109.933594-1.558594-.101562-3.121094-.167968-4.699219-.167968-36.429687 0-66.5 27.710937-70.257813 63.160156h-101.203124c-4.136719 0-7.496094 3.355468-7.496094 7.496094 0 4.140624 3.359375 7.496093 7.496094 7.496093h118.832031c2.167969 27.144531 24.933593 48.574219 52.628906 48.574219 27.820313 0 50.667969-21.628906 52.65625-48.949219 4.792969-.921875 9.09375-3.539062 12.15625-7.496093 3.855469-4.988282 5.160156-11.347657 3.578125-17.441407zm-68.390625 58.898438c-19.421875 0-35.464844-14.71875-37.578125-33.585938h12.613281c2.023438 11.953125 12.445313 21.089844 24.964844 21.089844s22.941406-9.136719 24.960937-21.089844h12.613282c-2.113282 18.867188-18.152344 33.585938-37.574219 33.585938zm-9.40625-33.585938h18.808594c-1.617188 3.589844-5.21875 6.097657-9.402344 6.097657-4.1875 0-7.789063-2.507813-9.40625-6.097657zm62.355469-17.042969c-1.003906 1.304688-2.527344 2.050782-4.171875 2.050782h-103.941407c3.671876-27.160156 27.011719-48.167969 55.164063-48.167969 25.355469 0 47.511719 17.113281 53.878906 41.621094.558594 2.144531-.339843 3.738281-.929687 4.496093zm0 0"/><path d="m237.679688 433.777344h-12.238282c-3.828125-47.019532-43.3125-84.109375-91.300781-84.109375s-87.472656 37.089843-91.300781 84.109375h-17.378906c-3.308594 0-6.347657-1.511719-8.34375-4.152344-1.988282-2.636719-2.613282-5.964844-1.710938-9.140625 6.6875-23.523437 24.304688-67.289063 67.132812-96.058594.035157-.023437.066407-.046875.101563-.066406 26.886719-18.695313 58.410156-28.578125 91.15625-28.578125h131.214844c-2.691407 17.496094-8.972657 58.332031-14.136719 92.128906-.933594 6.101563.839844 12.292969 4.863281 16.976563 4.023438 4.683593 9.875 7.371093 16.050781 7.371093h32.449219c11.292969 0 22.191407-4.710937 30.6875-13.261718 16.765625-16.878906 19.125-41.28125 18.152344-58.78125-.007813-.121094-.015625-.238282-.03125-.359375l-16.8125-161.484375h14.335937c3.34375 6.433594 10.394532 20.457031 18.371094 39.113281 1.625 3.808594 6.03125 5.574219 9.839844 3.945313 3.804688-1.625 5.570312-6.03125 3.945312-9.839844-6.089843-14.246094-11.585937-25.734375-15.441406-33.449219h1.933594c2.277344 2.710937 5.6875 4.4375 9.496094 4.4375h16.300781c5.429687 0 10.046875-3.507813 11.726563-8.375 15.289062-3.65625 26.816406-19.359375 26.816406-38.128906 0-18.765625-11.527344-34.472657-26.816406-38.128907-1.679688-4.863281-6.296876-8.375-11.726563-8.375h-16.300781c-3.808594 0-7.21875 1.726563-9.496094 4.4375h-15.722656c-1.507813-8.917968-5.011719-25.273437-12.140625-40.09375-3.308594-6.871093-8.875-12.6875-16.097657-16.824218l-6.484374-3.710938c-.09375-14.972656-8.410157-28.0625-20.765626-32.625-3.769531-1.386718-7.996093-.8359372-11.3125 1.472656-3.367187 2.347657-5.375 6.1875-5.375 10.28125v42.253907c0 4.09375 2.011719 7.9375 5.375 10.285156 2.105469 1.46875 4.582032 2.226563 7.074219 2.226563 1.433594 0 2.867188-.25 4.242188-.757813 7.941406-2.929687 14.207031-9.398437 17.699219-17.613281l2.097656 1.199218c4.582031 2.621094 8.050781 6.1875 10.035156 10.3125 5.699219 11.847657 8.851562 25.207032 10.414062 33.59375h-13.871093c-11.425781 0-20.925781 8.417969-22.613281 19.382813h-33.785157c-8.175781 0-14.824219 6.648437-14.824219 14.816406v13.785157c0 8.171874 6.648438 14.820312 14.824219 14.820312h33.574219c.730469 10.800781 8.984375 19.566406 19.550781 21.089844l17.003907 163.320312c1.121093 20.652344-3.660157 36.972656-13.824219 47.203125-5.742188 5.78125-12.675781 8.835938-20.054688 8.835938h-32.449219c-2.464843 0-3.988281-1.347657-4.675781-2.148438-.691406-.800781-1.789062-2.507812-1.417969-4.941406 6.773438-44.320313 15.464844-100.746094 15.464844-100.75.007813-.03125.007813-.0625.011719-.09375.003906-.039063.015625-.078125.019531-.121094l2.375-19.105469c.039063-.304687.058594-.613281.058594-.925781 0-16.605469-12.175781-30.117187-27.136719-30.117187h-119.914062c-4.441407 0-8.492188 2.375-10.835938 6.355468-2.554687 4.335938-2.628906 9.765626-.1875 14.167969l7.394531 13.339844c1.585938 2.863281 3.414063 5.484375 5.425782 7.863281h-4.570313c-35.804687 0-70.269531 10.800782-99.671875 31.226563-46.757812 31.4375-65.894531 78.882812-73.144531 104.371093-2.199219 7.738282-.679687 15.859376 4.171875 22.277344 4.851562 6.425782 12.253906 10.109375 20.304688 10.109375h54.558593c2.167969 27.144531 24.933594 48.578125 52.628907 48.578125 27.695312 0 50.460937-21.433594 52.625-48.578125h52.40625c4.136718 0 7.496093-3.355469 7.496093-7.496093 0-4.140626-3.355469-7.496094-7.496093-7.496094zm209.746093-319.621094c6.554688 3.714844 11.140625 12.140625 11.140625 21.917969 0 9.777343-4.585937 18.207031-11.140625 21.917969zm-26.128906-9.59375h11.140625v63.023438h-11.140625zm-84.984375-54.046875v-33.753906c4.535156 3.457031 7.480469 9.851562 7.480469 16.875 0 7.023437-2.945313 13.417969-7.480469 16.878906zm5.191406 91.308594h-33.347656v-13.441407h33.347656zm14.992188 13.433593v-38.363281c0-4.351562 3.539062-7.890625 7.890625-7.890625h41.914062v54.148438h-41.914062c-4.351563-.003906-7.890625-3.542969-7.890625-7.894532zm-60.007813 98.792969c6.582031 0 11.957031 6.558594 12.140625 14.703125l-1.496094 12.035156h-97.542968c-9.484375 0-18.277344-5.65625-23.53125-15.132812l-6.429688-11.605469zm-163.839843 228.304688c-19.421876 0-35.460938-14.71875-37.578126-33.585938h12.613282c2.023437 11.953125 12.445312 21.089844 24.964844 21.089844 12.519531 0 22.941406-9.136719 24.960937-21.089844h12.613281c-2.109375 18.867188-18.152344 33.585938-37.574218 33.585938zm-9.414063-33.585938h18.828125c-1.621094 3.589844-5.226562 6.097657-9.414062 6.097657s-7.792969-2.507813-9.414063-6.097657zm-65.347656-14.992187c3.78125-38.738282 36.539062-69.117188 76.253906-69.117188 39.71875 0 72.472656 30.378906 76.253906 69.117188zm0 0"/><path d="m88.308594 286.699219h-80.8125c-4.140625 0-7.496094-3.351563-7.496094-7.496094 0-4.140625 3.355469-7.492187 7.496094-7.492187h80.8125c4.140625 0 7.496094 3.351562 7.496094 7.492187 0 4.144531-3.355469 7.496094-7.496094 7.496094zm0 0"/><path d="m120.675781 259.246094h-80.8125c-4.140625 0-7.496093-3.355469-7.496093-7.496094s3.355468-7.496094 7.496093-7.496094h80.8125c4.140625 0 7.496094 3.355469 7.496094 7.496094s-3.355469 7.496094-7.496094 7.496094zm0 0"/></svg>