<svg id="icon" height="512" viewBox="0 0 128 128" width="512" xmlns="http://www.w3.org/2000/svg"><rect fill="#3a556a" height="26.513" rx="3.42" transform="matrix(1 -.002 .002 1 -.156 .175)" width="16.747" x="96.735" y="80.512"/><path d="m100.171 108.033a4.419 4.419 0 0 1 -4.419-4.413l-.033-19.672a4.426 4.426 0 0 1 4.413-4.428l9.907-.017h.007a4.426 4.426 0 0 1 4.421 4.413l.033 19.672a4.426 4.426 0 0 1 -4.413 4.428l-9.907.016zm9.87-26.529-9.906.017a2.424 2.424 0 0 0 -2.416 2.425l.033 19.672a2.42 2.42 0 0 0 2.419 2.416l9.907-.016a2.424 2.424 0 0 0 2.416-2.425l-.033-19.672a2.424 2.424 0 0 0 -2.421-2.417z" fill="#2f3a5a"/><rect fill="#3a556a" height="26.513" rx="3.42" transform="matrix(1 -.002 .002 1 -.156 .038)" width="16.747" x="14.518" y="80.512"/><path d="m17.954 108.033a4.42 4.42 0 0 1 -4.42-4.413l-.034-19.672a4.426 4.426 0 0 1 4.413-4.428l9.907-.017h.007a4.42 4.42 0 0 1 4.42 4.414l.033 19.672a4.426 4.426 0 0 1 -4.413 4.428l-9.907.016zm9.87-26.533-9.907.017a2.424 2.424 0 0 0 -2.417 2.428l.033 19.672a2.423 2.423 0 0 0 2.42 2.416l9.907-.016a2.424 2.424 0 0 0 2.416-2.425l-.027-19.672a2.421 2.421 0 0 0 -2.42-2.417z" fill="#2f3a5a"/><path d="m114.6 38.962a1.929 1.929 0 0 0 -1.757 1.927v1.3a2.935 2.935 0 0 1 -2.93 2.94h-2.963l1.5 4.446s19.075-.032 18.531-6.3c-.414-4.854-8.681-4.651-12.381-4.313z" fill="#3a556a"/><path d="m107.74 50.581-2.179-6.444 4.355-.007a1.937 1.937 0 0 0 1.931-1.938v-1.3a2.917 2.917 0 0 1 2.666-2.924c3.171-.287 8.916-.419 11.754 1.955a4.662 4.662 0 0 1 1.72 3.273 3.906 3.906 0 0 1 -1.1 3.067c-3.822 4.175-16.944 4.317-18.428 4.319zm.607-4.449.825 2.439c4.246-.084 13.661-.844 16.24-3.662a1.935 1.935 0 0 0 .58-1.543 2.694 2.694 0 0 0 -1.011-1.913c-1.667-1.4-5.418-1.941-10.289-1.5a.928.928 0 0 0 -.848.929v1.3a3.939 3.939 0 0 1 -3.928 3.941z" fill="#2f3a5a"/><path d="m13.4 38.962a1.929 1.929 0 0 1 1.757 1.927v1.3a2.935 2.935 0 0 0 2.93 2.94h2.963l-1.5 4.446s-19.083-.026-18.539-6.295c.422-4.859 8.689-4.656 12.389-4.318z" fill="#3a556a"/><path d="m20.26 50.581h-.719c-1.484 0-14.606-.145-18.428-4.319a3.906 3.906 0 0 1 -1.1-3.067 4.662 4.662 0 0 1 1.72-3.273c2.838-2.374 8.582-2.243 11.754-1.955a2.917 2.917 0 0 1 2.666 2.924v1.3a1.937 1.937 0 0 0 1.932 1.938l4.354.007zm-10.1-10.775c-3.327 0-5.855.571-7.143 1.648a2.694 2.694 0 0 0 -1.011 1.913 1.935 1.935 0 0 0 .58 1.543c2.58 2.818 11.994 3.578 16.24 3.662l.825-2.439h-1.572a3.939 3.939 0 0 1 -3.928-3.942v-1.3a.928.928 0 0 0 -.848-.93c-1.103-.105-2.158-.155-3.141-.155z" fill="#2f3a5a"/><path d="m118.527 74.743a70.758 70.758 0 0 1 -2.252 14.835 7.619 7.619 0 0 1 -7.371 5.654l-44.81.059h-.1l-44.836.084a7.582 7.582 0 0 1 -7.373-5.617 70.834 70.834 0 0 1 -2.325-15.334c-.09-2.441-.031-4.579.078-6.365a23.019 23.019 0 0 1 2.732-9.423l5.63-10.518s9.937-22.878 14.147-24.718c2.042-.9 9.542-1.494 16.79-1.865 7.223-.371 14.167-.543 15.023-.564h.1c1.736.033 27.749.547 31.818 2.3 4.219 1.855 14.235 24.693 14.235 24.693l5.666 10.491a23.039 23.039 0 0 1 2.752 9.447 58.5 58.5 0 0 1 .096 6.841z" fill="#81dafc"/><path d="m118.523 74.746a70.131 70.131 0 0 1 -2.254 14.836 7.621 7.621 0 0 1 -7.361 5.654l-44.815.051h-.1l-44.828.089a7.576 7.576 0 0 1 -7.374-5.616 70.227 70.227 0 0 1 -2.33-15.333c-.089-2.445-.025-4.585.076-6.368.025-.458.076-.917.14-1.375a70.15 70.15 0 0 0 2.241 13.8 7.576 7.576 0 0 0 7.374 5.616l44.84-.076h.089l44.815-.064a7.61 7.61 0 0 0 7.374-5.654 73.259 73.259 0 0 0 2.063-11.869 59.5 59.5 0 0 1 .05 6.309z" fill="#3dbce9"/><path d="m19.132 96.374a8.561 8.561 0 0 1 -8.316-6.365 71.822 71.822 0 0 1 -2.356-15.548c-.079-2.16-.053-4.274.08-6.462a24.164 24.164 0 0 1 2.85-9.838l5.63-10.515c1.649-3.807 10.28-23.261 14.626-25.166 1.829-.8 7.6-1.458 17.14-1.948 6.439-.331 12.642-.5 15.009-.564h.116c2.921.054 28.059.57 32.264 2.383 4.454 1.958 13.713 22.835 14.755 25.209l5.63 10.417a23.944 23.944 0 0 1 2.87 9.859 59.419 59.419 0 0 1 .1 6.948 71.765 71.765 0 0 1 -2.283 15.045 8.617 8.617 0 0 1 -8.336 6.4l-44.812.059h-.107l-44.829.084zm44.81-74.407c-2.457.06-8.639.232-15.054.562-12.2.625-15.535 1.385-16.438 1.782-2.806 1.229-9.85 15.499-13.632 24.206l-5.667 10.591a22.147 22.147 0 0 0 -2.615 9.016c-.129 2.119-.154 4.169-.077 6.264a69.8 69.8 0 0 0 2.292 15.112 6.563 6.563 0 0 0 6.382 4.871h.021l44.837-.084h.109l44.8-.059a6.614 6.614 0 0 0 6.4-4.906 69.776 69.776 0 0 0 2.228-14.622 57.487 57.487 0 0 0 -.094-6.726 21.964 21.964 0 0 0 -2.636-9.049l-5.666-10.489c-3.847-8.766-10.944-23.016-13.757-24.252-3.129-1.35-21.93-2.04-31.433-2.217z" fill="#2f3a5a"/><path d="m102.043 46.359-37.887.064h-.089l-10.481.013-4.916.013h-3.107l-2.573.013h-.013l-16.8.025 7.972-17.753a2.639 2.639 0 0 1 2.331-1.541l20.3-.573h.02l2.6-.076 3.171-.089 1.515-.038h.038l3.337.076 24.222.6a2.629 2.629 0 0 1 2.33 1.554z" fill="#84879c"/><path d="m83.174 65.059c-5.268.19-11.386.357-18.214.45-7.641-.17-14.394-.424-20.058-.692a5.127 5.127 0 0 0 -.502 10.242c5.811.3 11.8.6 16.526.839q5.016.254 10.027.034c3.31-.145 7.882-.349 12.636-.568a5.128 5.128 0 0 0 4.891-5.1v-.064a5.118 5.118 0 0 0 -5.306-5.141z" fill="#f0f5f9"/><path d="m66.292 77.033c-1.81 0-3.621-.046-5.419-.137l-4.357-.22c-3.8-.191-8.031-.4-12.171-.62a6.127 6.127 0 0 1 .6-12.239c6.5.307 13.24.54 20.034.691 6.1-.084 12.22-.235 18.155-.45a6.119 6.119 0 0 1 6.339 6.149 6.138 6.138 0 0 1 -5.846 6.153c-4.755.22-9.328.423-12.638.568-1.556.072-3.126.105-4.697.105zm-21.637-11.222a4.124 4.124 0 0 0 -4.115 4.11 4.119 4.119 0 0 0 3.908 4.139c4.138.215 8.369.428 12.167.62l4.357.22c3.3.167 6.639.178 9.932.033 3.309-.145 7.88-.349 12.634-.568a4.173 4.173 0 0 0 2.683-7.15 4.059 4.059 0 0 0 -3.012-1.155c-5.95.215-12.086.367-18.236.451-6.847-.152-13.6-.385-20.119-.693-.066-.005-.133-.007-.199-.007z" fill="#2f3a5a"/><path d="m108.62 63.076-10.539.736a4.009 4.009 0 0 0 -3.73 3.982l-.017 3.995a4 4 0 0 0 4.43 4.008c3.865-.441 9.415-1.839 13.149-6.062a4.017 4.017 0 0 0 -3.293-6.659z" fill="#d9e2e9"/><path d="m98.319 76.822a4.966 4.966 0 0 1 -3.312-1.27 5.034 5.034 0 0 1 -1.672-3.769l.017-3.995a5.029 5.029 0 0 1 4.661-4.976l10.539-.736a5.017 5.017 0 0 1 4.112 8.319c-3.919 4.431-9.659 5.922-13.785 6.393a4.982 4.982 0 0 1 -.56.034zm10.371-12.749-10.539.736a3.021 3.021 0 0 0 -2.8 2.989l-.017 3.995a3.032 3.032 0 0 0 1.007 2.271 2.924 2.924 0 0 0 2.31.74c3.778-.431 9.015-1.775 12.514-5.731a3.017 3.017 0 0 0 -2.475-5z" fill="#2f3a5a"/><path d="m19.459 62.692 10.532.826a4.009 4.009 0 0 1 3.7 4.014l-.017 3.995a4 4 0 0 1 -4.474 3.973c-3.861-.474-9.4-1.92-13.1-6.175a4.017 4.017 0 0 1 3.359-6.633z" fill="#d9e2e9"/><path d="m29.684 76.527a4.971 4.971 0 0 1 -.6-.037c-4.122-.507-9.85-2.048-13.729-6.512a5.017 5.017 0 0 1 4.184-8.284l10.532.826a5.031 5.031 0 0 1 4.618 5.016l-.017 3.995a5.035 5.035 0 0 1 -1.705 3.754 4.967 4.967 0 0 1 -3.283 1.242zm-10.563-12.848a3.018 3.018 0 0 0 -2.258 4.988c3.463 3.985 8.689 5.375 12.464 5.838a2.931 2.931 0 0 0 2.316-.719 3.037 3.037 0 0 0 1.027-2.263l.017-3.995a3.022 3.022 0 0 0 -2.774-3.013l-10.532-.826c-.089-.007-.175-.01-.26-.01z" fill="#2f3a5a"/><circle cx="103.601" cy="85.313" fill="#d9e2e9" r="4.933"/><path d="m103.6 91.246a5.933 5.933 0 1 1 5.933-5.933 5.939 5.939 0 0 1 -5.933 5.933zm0-9.866a3.933 3.933 0 1 0 3.933 3.933 3.937 3.937 0 0 0 -3.933-3.933z" fill="#2f3a5a"/><circle cx="24.399" cy="85.313" fill="#d9e2e9" r="4.933"/><g fill="#2f3a5a"><path d="m24.4 91.246a5.933 5.933 0 1 1 5.933-5.933 5.94 5.94 0 0 1 -5.933 5.933zm0-9.866a3.933 3.933 0 1 0 3.933 3.933 3.937 3.937 0 0 0 -3.933-3.933z"/><path d="m81.677 84.572h-35.354a1 1 0 0 1 0-2h35.354a1 1 0 0 1 0 2z"/><path d="m81.677 89.368h-35.354a1 1 0 1 1 0-2h35.354a1 1 0 0 1 0 2z"/></g><g fill="#fff" opacity=".75"><path d="m59.393 26.544-13.83 19.905-2.573.012 13.792-19.841h.013z"/><path d="m67.455 26.493-13.869 19.943-4.916.013 13.894-19.995 1.516-.038h.038z"/></g><path d="m26.174 47.487a1 1 0 0 1 -.912-1.41l7.98-17.749a3.648 3.648 0 0 1 3.208-2.139l27.6-.777h.1l27.55.688a3.649 3.649 0 0 1 3.214 2.129l8.039 17.721a1 1 0 0 1 -.909 1.413l-75.871.126zm37.9-20.075-27.572.776a1.639 1.639 0 0 0 -1.44.96l-7.34 16.336 72.773-.121-7.395-16.311a1.64 1.64 0 0 0 -1.443-.956l-27.557-.683z" fill="#2f3a5a"/></svg>